# xmcd CD database file
#
# Track frame offsets:
#	187
#	18580
#	38555
#	54227
#	70362
#	87542
#	105830
#	123035
#	140555
#	153880
#
# Disc length: 2303 seconds
#
# Revision: 2
# Processed by: cddbd v1.5PL3 Copyright (c) Steve Scherf et al.
# Submitted via: CDex 1.50
#
DISCID=7608fd0a
DTITLE=Earl Thomas Conley - Greatest Hits Vol 2
DYEAR=1990
DGENRE=Country
TTITLE0=What She Is
TTITLE1=That Was A Close One
TTITLE2=Love Don't Care (Whose Heart It Breaks)
TTITLE3=Who's Gonna Tell Her Goodbye
TTITLE4=Love Out Loud
TTITLE5=I Can't Win For Losin' You
TTITLE6=Bring Back Your Love To Me
TTITLE7=What'd I Say
TTITLE8=Chance Of Lovin' You
TTITLE9=You Must Not Be Drinking Enough
EXTD=YEAR: 1990
EXTT0=
EXTT1=
EXTT2=
EXTT3=
EXTT4=
EXTT5=
EXTT6=
EXTT7=
EXTT8=
EXTT9=
PLAYORDER=
